<?xml version="1.0" standalone="no"?>
<!DOCTYPE svg PUBLIC "-//W3C//DTD SVG 20010904//EN"
 "http://www.w3.org/TR/2001/REC-SVG-20010904/DTD/svg10.dtd">
<svg version="1.0" xmlns="http://www.w3.org/2000/svg"
 width="3600pt" height="1800pt" viewBox="0 0 3600 1800"
 preserveAspectRatio="xMidYMid meet">

<g transform="translate(0, 1800) scale(0.300000,-0.300000)" fill="#DA291C" stroke="none">
  <rect x="0" y="0" width="3000" height="6000" />
  <rect x="3000" y="0" width="6000" height="6000" fill="#FFFFFF" />
  <rect x="9000" y="0" width="3000" height="6000" />
  <path d="M5880 4738 c-95 -189 -184 -358 -198 -376 -21 -29 -29 -33 -53 -28
    -31 6 -133 62 -288 159 -51 32 -95 57 -96 55 -1 -2 26 -142 61 -313 35 -170
    86 -421 114 -556 27 -135 50 -259 50 -275 0 -39 -36 -74 -77 -74 -34 0 -50 16
    -368 374 l-159 179 -12 -29 c-90 -206 -118 -246 -187 -265 -57 -15 -168 3
    -357 58 -85 25 -165 48 -177 50 -21 5 -20 1 18 -134 116 -405 137 -520 104
    -582 -15 -30 -61 -56 -152 -85 -29 -10 -53 -21 -53 -25 0 -4 28 -30 63 -58 34
    -28 184 -153 332 -278 149 -125 335 -279 413 -342 79 -64 152 -130 163 -147
    38 -62 18 -199 -47 -327 -19 -38 -34 -72 -34 -77 0 -4 37 -2 83 5 550 86 864
    133 891 133 19 0 45 -9 60 -21 25 -20 26 -24 26 -122 0 -89 -12 -355 -36 -794
    l-7 -123 102 0 102 0 -5 57 c-3 32 -10 146 -16 253 -26 508 -32 672 -26 695 7
    28 52 55 92 55 21 0 479 -69 882 -133 45 -7 84 -12 86 -10 1 1 -15 38 -35 82
    -21 43 -45 106 -53 139 -33 127 -14 191 81 263 52 40 711 587 841 698 28 25
    52 48 52 52 0 4 -24 15 -52 25 -77 25 -123 50 -147 80 -40 51 -28 123 93 553
    25 91 44 166 41 169 -2 2 -57 -12 -122 -32 -274 -83 -415 -101 -470 -60 -39
    29 -74 86 -113 182 -18 45 -36 84 -40 87 -4 3 -54 -48 -111 -113 -143 -162
    -329 -371 -361 -404 -46 -48 -113 -34 -132 28 -7 22 1 64 139 738 46 231 84
    421 82 422 -1 1 -60 -33 -131 -76 -189 -116 -251 -145 -280 -132 -21 9 -187
    320 -349 654 -23 47 -45 87 -48 87 -4 1 -84 -153 -179 -341z" />
</g>
</svg>
