<?xml version="1.0" encoding="UTF-8" standalone="no"?>
<svg xmlns:rdf="http://www.w3.org/1999/02/22-rdf-syntax-ns#" xmlns="http://www.w3.org/2000/svg" height="118.040224mm" width="182.22mm" version="1.1" xmlns:cc="http://creativecommons.org/ns#" xmlns:dc="http://purl.org/dc/elements/1.1/" viewBox="0 0 645.64677 418.259557201">
 <defs>
  <clipPath id="a" clipPathUnits="userSpaceOnUse">
   <path d="m475.2 695.52h104.4v69.48h-104.4v-69.48z"/>
  </clipPath>
  <clipPath id="b" clipPathUnits="userSpaceOnUse">
   <path d="m502.48 701h73.518v57.236h-73.518v-57.236z"/>
  </clipPath>
 </defs>
 <g transform="translate(-46.168 -460.33)">
  <path d="m689.62 462.52h-641.27v414.35h641.27v-414.35z" fill="#fff"/>
  <g transform="matrix(8.7822 0 0 -8.7822 -4366.7 7119.3)">
   <g clip-path="url(#b)">
    <path d="m575.75 757.99h-73.019v-47.181h73.019v47.181z" stroke="#0c2950" stroke-width="0.499" fill="none"/>
   </g>
  </g>
  <g fill="#0c2950">
   <path d="m118.9 464.07h-70.565v414.36h70.565v-414.36z"/>
   <path d="m261.03 464.07h-70.565v414.36h70.565v-414.36z"/>
   <path d="m403.17 464.07h-70.565v414.36h70.565v-414.36z"/>
   <path d="m545.31 464.07h-70.565v414.36h70.565v-414.36z"/>
   <path d="m689.95 462.83h-70.565v414.36h70.565v-414.36z"/>
  </g>
  <g transform="matrix(8.7822 0 0 -8.7822 -4366.7 7119.3)">
   <g clip-path="url(#a)">
    <g transform="translate(538.54 755.49)">
     <path d="m0 0c1.073-1.023 1.469-2.377 2.146-3.599 0.611-1.535 0.578-3.334 0.958-4.952 0.792 0.578 1.435 1.486 2.41 1.618l-0.512-8.518c-0.067-1.023-0.396-2.129-0.05-3.12 0.149-0.33 0.545-0.379 0.842-0.281 1.436 0.727 2.889 1.948 3.4 3.516 0.661 1.305 1.354 2.411 2.377 3.418 0.413-0.512 0.215-1.371 0.314-1.981 1.453 1.271 3.219 1.799 4.887 2.575-0.034-0.149 0.132-0.115 0.065-0.281h-0.032c-0.512-1.981-1.304-3.796-2.212-5.43 0.412-0.248 0.94 0.016 1.386 0.082 0.429 0.049 0.958 0.083 1.387-0.033 0.099-0.116-0.033-0.099 0.115-0.198-1.486-0.793-2.823-2.327-4.011-3.417-0.149-0.198-0.313-0.396-0.463-0.595-0.264-0.247-0.428-0.544-0.643-0.825-0.297-0.148-0.38-0.429-0.594-0.644-0.379-0.511-0.678-1.006-0.941-1.65 0.016-0.248-0.017-0.594 0.313-0.594 1.255 0.165 2.361 0.94 3.203 1.848 0.066 0.149 0.198-0.115 0.198 0.083l0.05-1.866h0.115c1.354 0.645 2.591 1.602 4.193 1.668-0.083-1.915-1.189-3.434-2.377-4.87 0.825-0.115 1.75-0.066 2.343-0.627-0.197-0.76-1.138-1.271-1.749-1.832-1.717-1.255-3.368-2.444-5.183-3.451 0.776-0.297 1.469-1.04 1.898-1.699-1.981-0.776-4.044-1.371-6.305-1.503 0-0.065-0.116-0.033-0.199-0.033v0.033l-1.733 0.116v0.049c-1.222 0-3.037 1.486-3.763-0.247-0.463-1.898-0.281-4.061-1.387-5.696-0.05-0.23-0.132-0.478-0.396-0.478-0.067-0.016-0.165 0.033-0.199-0.05-0.61 0.413-1.435 0.793-1.782 1.552-1.007 1.701 0.759 3.12 0.941 4.754 0.033 0.396 0.165 0.793-0.116 1.106-1.403 0.793-3.004-0.016-4.275-0.429-0.396-0.066-0.66-0.346-1.106-0.363-1.403-0.347-2.938-0.578-4.556-0.479-1.023 0.232-2.047 0.628-2.691 1.585-0.066 0.495 0.512 0.874 0.859 1.156l0.99 0.676c-0.231 0.116-0.363 0.479-0.66 0.479-0.182 0.149-0.364 0.248-0.595 0.346-1.072 0.694-2.079 1.586-2.773 2.691-0.495 0.578-1.139 1.238-1.667 1.915 0.446 0.264 1.09 0.363 1.469 0.825-0.033 0.479-0.528 0.776-0.842 1.156-1.436 1.106-1.915 2.691-2.063 4.39 1.683-0.412 3.169-1.304 4.688-2.145 0.165 0.28 0.165 0.627 0.148 0.958-0.032 0.511 0.05 0.973 0.248 1.386 0.974-0.957 1.75-2.162 2.889-2.972 0.215-0.098 0.446-0.264 0.71-0.165 0.412 0.298 0.231 0.843 0.165 1.272-0.991 2.426-2.906 4.275-4.837 6.107-0.446 0.33-0.891 0.628-1.354 0.875 0.843-0.099 1.387 0.479 2.147 0.545-0.496 0.511-0.677 1.221-1.074 1.7-0.429 1.09-0.858 2.229-1.221 3.368v0.33c0.809 0.017 1.386-0.496 2.129-0.644 1.304-0.726 2.476-1.683 3.813-2.46 0.248-0.098 0.149 0.182 0.232 0.281l0.082 0.71h0.033l0.165 1.123c0.941-0.298 1.172-1.371 1.701-2.064 1.056-1.552 2.096-3.516 3.879-4.474 0-0.165 0.181-0.033 0.247-0.132 1.057 0.908 1.057 2.361 0.941 3.731-0.132 0.462-0.066 0.974-0.198 1.42-0.33 2.311-0.908 4.704-1.188 7.13 1.023-0.28 1.766-1.237 2.69-1.733 0.215 2.757 0.198 5.63 1.717 7.841 0.049 0.116 0.181 0.083 0.264 0.116" fill="#f15029"/>
    </g>
    <g transform="translate(544.12 729.45)">
     <path d="m0 0c0.257 0.14 0.491 0.351 0.78 0.39 1.068 0.14 2.216 0.149 2.996 0.991-0.055-0.047-0.11-0.102-0.164-0.148 0.038 0.039 0.077 0.085 0.117 0.125l0.351 0.351c-0.547-1.228-2.188-1.366-3.016-1.532-0.827-0.166-0.941-0.444-1.267-0.653l0.203 0.476z" fill="#0c2950"/>
    </g>
    <g transform="translate(531.91 721.38)">
     <path d="m0 0c0.822-0.125 1.727 0.176 2.695 1.082 0.148 0.14 1.055 0.571 1.289 0.571 0 0-1.132-0.322-1.227-0.395-0.349-0.267-0.877-0.546-1.04-0.686-0.906-0.773-1.426-0.697-3.336 0.104 0 0 0.797-0.551 1.619-0.676" fill="#0c2950"/>
    </g>
    <g transform="translate(538.39 750.55)">
     <path d="m0 0c0.413-1.116 1.623-4.924 1.664-6.214 0.042-1.289-0.8-6.405-1.089-9.892-0.109-1.279-0.107-1.843 0.049-3.131 0.219-1.809 0.125-4.659 0.458-5.887 0.333-1.227-0.305-4.946-0.608-7.443-0.152-1.242-0.047-1.918-0.318-3.27l-0.094-0.271c0.38 1.044-0.067 1.979 0.104 3.142 0.172 1.139 0.513 2.718 0.551 3.596 0.05 1.188 0.425 2.637 0.142 3.955-0.443 2.06-0.235 4.764-0.346 5.315-0.86 4.25 0.516 7.893 0.827 11.85 0.075 0.955-0.119 3.86-0.522 4.592-0.402 0.731-0.818 3.658-0.818 3.658" fill="#0c2950"/>
    </g>
    <g transform="translate(538.91 734.6)">
     <path d="m0 0c0.062 0.257 0.551 1.158 1.019 1.657s2.663 2.455 2.476 4.069l-0.515-1.427c0-0.375-0.338-1.435-1.108-2.163s-1.576-1.785-1.887-2.456l0.015 0.32z" fill="#0c2950"/>
    </g>
    <g transform="translate(551.79 739.17)">
     <path d="m0 0c-0.53-0.045-3.109-1.219-4.077-3.467-0.541-1.255-4.161-6.303-4.66-7.739-0.132-0.38-0.978-2.254-0.978-2.254 1.155 0.765 1.165 2.361 1.935 3.495 1.622 2.393 3.125 6.505 4.16 7.802 0.322 0.403 0.922 0.951 1.196 1.217 0.276 0.265 1.342 0.863 1.758 0.967s0.666-0.021 0.666-0.021" fill="#0c2950"/>
    </g>
    <g transform="translate(546.25 734.24)">
     <path d="m0 0c0.105 0.437 0.281 1.028 0.5 1.699 0.202 0.624 0.754 0.842 1.012 1.443 0.094 0.21 0.218 0.933 0.226 1.159 0 0-0.157-0.799-0.427-1.035s-1.248-3.474-1.269-3.932l-0.042 0.666z" fill="#0c2950"/>
    </g>
    <g transform="translate(548.79 726.08)">
     <path d="m0 0c-0.054-0.062-0.117-0.133-0.172-0.195 0.406 0.344 0.57 0.842 0.734 1.334 0.125 0.406 1.731 1.981 1.872 2.262l-0.432-0.257c-0.07-0.124-0.793-0.998-0.769-0.952-1.228-0.941-0.864-0.994-1.405-2.387 0.055 0.062 0.118 0.133 0.172 0.195-0.133-0.163-0.272-0.319-0.405-0.484 0 0 0.389 0.445 0.405 0.484" fill="#0c2950"/>
    </g>
    <g transform="translate(543.62 722.59)">
     <path d="m0 0c0.827 0.141 1.524 0.453 2.382 0.274 0.795-0.164 1.21-0.663 1.927-0.999 0.344-0.156 1.011-0.008 1.387-0.024l-0.541-0.101c-0.374 0.008-1.09 0.062-1.386 0.25-0.77 0.489-0.807 0.478-1.602 0.634-0.858 0.172-2.055-0.031-2.494-0.104s0.327 0.07 0.327 0.07" fill="#0c2950"/>
    </g>
    <g transform="translate(531.52 725.72)">
     <path d="m0 0c0.694-0.172 1.162-0.032 1.68-0.219l0.129-0.052c-0.526 0.173-0.912 0.459-1.357 0.482-1.794 0.094-2.286 0.429-3.781 1.388 0.621-0.709 1.932-1.645 3.329-1.599" fill="#0c2950"/>
    </g>
    <g transform="translate(528.32 736.84)">
     <path d="m0 0c2.028-0.445 4.504-3.051 4.962-3.634 0.458-0.582 1.685-2.898 2.33-3.606 0.622-0.682 2.678-2.527 2.678-2.527-1.366 0.233-3.664 3.491-4.086 4.171-0.374 0.603-0.581 0.774-1.04 1.687-0.458 0.913-1.602 1.704-2.268 2.328-0.665 0.624-2.576 1.581-2.576 1.581" fill="#0c2950"/>
    </g>
    <g transform="translate(534.81 746.45)">
     <path d="m0 0c2.442-0.569 3.513-4.66 3.68-5.034 0.166-0.374 0.634-1.308 0.744-1.488 0 0-0.396 0.326-0.412 0.365 0.063-0.086-0.368 0.539-0.611 1.133-0.242 0.593-0.234 2.083-0.928 3.402 0.054-0.094-0.367 0.426-0.312 0.333-0.437 0.522-1.084 0.798-1.732 0.977l-0.429 0.312z" fill="#0c2950"/>
    </g>
    <g transform="translate(529.51 741.02)">
     <path d="m0 0c1.068-0.867 1.963-6.039 2.056-6.171 0 0-0.582 1.165-0.499 2.038 0.14 1.461-0.485 2.534-0.666 3.1-0.145 0.458-0.774 1.212-1.164 1.29" fill="#0c2950"/>
    </g>
    <g transform="translate(553.73 729.08)">
     <path d="m0 0c-0.795-0.226-4.743-3.323-4.696-3.269-0.32-0.288-4.567-2.911-5.682-2.976-0.059-0.003-0.527-0.166-0.497-0.48 0.223 0.05 5.196 2.248 5.704 2.737 0.507 0.489 0.77 1.266 1.568 1.904 0.798 0.637 2.168 1.491 3.088 1.795l0.515 0.289z" fill="#0c2950"/>
    </g>
    <g transform="translate(538.34 721.66)">
     <path d="m0 0c-0.737 0.962-1.93 1.301-2.861 2.081-0.088 0.072-0.173 0.137-0.253 0.218-0.475 0.496-0.848 1.047-1.451 1.402-0.699 0.415-1.362 0.785-1.919 1.374-0.674 0.71-1.471 1.72-1.888 2.255-0.291 0.374-0.572 0.519-1 0.484 0.574-0.099 1.116-0.789 1.697-1.597 0.239-0.333 0.237-0.355 0.909-1.068 0.608-0.644 1.267-1.106 2.016-1.612 0.529-0.357 0.922-0.725 1.359-1.157 0.806-0.799 1.87-1.114 2.711-1.875 0.148-0.134 0.3-0.255 0.399-0.429l0.281-0.076z" fill="#0c2950"/>
    </g>
    <g transform="translate(533.25 732.97)">
     <path d="m0 0c-0.409 0.354-0.967 0.447-1.481 0.354-0.745-0.139-1.428-0.222-2.142-0.028l-0.264-0.125c0.714-0.187 1.397-0.11 2.143 0.028 0.513 0.094 1.532-0.239 1.942-0.597l-0.198 0.368z" fill="#0c2950"/>
    </g>
   </g>
  </g>
 </g>
</svg>
