<?xml version="1.0" standalone="no"?>
<!DOCTYPE svg PUBLIC "-//W3C//DTD SVG 20010904//EN" "http://www.w3.org/TR/2001/REC-SVG-20010904/DTD/svg10.dtd">
<svg version="1.0" xmlns="http://www.w3.org/2000/svg" width="1273.3333333333333pt" height="666.6666666666666pt" viewBox="0 0 3820.0 2000.0" preserveAspectRatio="xMidYMid meet">
<title>US Ensign</title>
<metadata>
<desc id="created-by">Julian Fiander</desc>
<desc id="generated-at">20171116.1740+0000</desc>
</metadata>
<rect x="0" y="0" width="3820.0" height="153.84615384615384" fill="#BF0D3E" />
<rect x="0" y="153.84615384615384" width="3820.0" height="153.84615384615384" fill="#FFFFFF" />
<rect x="0" y="307.6923076923077" width="3820.0" height="153.84615384615384" fill="#BF0D3E" />
<rect x="0" y="461.53846153846155" width="3820.0" height="153.84615384615384" fill="#FFFFFF" />
<rect x="0" y="615.3846153846154" width="3820.0" height="153.84615384615384" fill="#BF0D3E" />
<rect x="0" y="769.2307692307693" width="3820.0" height="153.84615384615384" fill="#FFFFFF" />
<rect x="0" y="923.0769230769231" width="3820.0" height="153.84615384615384" fill="#BF0D3E" />
<rect x="0" y="1076.923076923077" width="3820.0" height="153.84615384615384" fill="#FFFFFF" />
<rect x="0" y="1230.7692307692307" width="3820.0" height="153.84615384615384" fill="#BF0D3E" />
<rect x="0" y="1384.6153846153845" width="3820.0" height="153.84615384615384" fill="#FFFFFF" />
<rect x="0" y="1538.4615384615386" width="3820.0" height="153.84615384615384" fill="#BF0D3E" />
<rect x="0" y="1692.3076923076924" width="3820.0" height="153.84615384615384" fill="#FFFFFF" />
<rect x="0" y="1846.1538461538462" width="3820.0" height="153.84615384615384" fill="#BF0D3E" />
<rect x="0" y="0" width="1522.9992210171793" height="1076.923076923077" fill="#041E42" />
<g transform="translate(126.9166017514316, 127.6923076923077)"><g transform="scale(0.31)"><path d="M 0 0
l 117.555 81.805
l -41.47 -137.085
l 114.125 -86.525
l -143.185 -2.915
l -47.025 -135.28
l -47.025 135.28
l -143.185 2.915
l 114.125 86.525
l -41.47 137.085
l 117.555 -81.805
" fill="#FFFFFF" />
</g></g>
<g transform="translate(380.7498052542948, 127.6923076923077)"><g transform="scale(0.31)"><path d="M 0 0
l 117.555 81.805
l -41.47 -137.085
l 114.125 -86.525
l -143.185 -2.915
l -47.025 -135.28
l -47.025 135.28
l -143.185 2.915
l 114.125 86.525
l -41.47 137.085
l 117.555 -81.805
" fill="#FFFFFF" />
</g></g>
<g transform="translate(634.583008757158, 127.6923076923077)"><g transform="scale(0.31)"><path d="M 0 0
l 117.555 81.805
l -41.47 -137.085
l 114.125 -86.525
l -143.185 -2.915
l -47.025 -135.28
l -47.025 135.28
l -143.185 2.915
l 114.125 86.525
l -41.47 137.085
l 117.555 -81.805
" fill="#FFFFFF" />
</g></g>
<g transform="translate(888.4162122600213, 127.6923076923077)"><g transform="scale(0.31)"><path d="M 0 0
l 117.555 81.805
l -41.47 -137.085
l 114.125 -86.525
l -143.185 -2.915
l -47.025 -135.28
l -47.025 135.28
l -143.185 2.915
l 114.125 86.525
l -41.47 137.085
l 117.555 -81.805
" fill="#FFFFFF" />
</g></g>
<g transform="translate(1142.2494157628844, 127.6923076923077)"><g transform="scale(0.31)"><path d="M 0 0
l 117.555 81.805
l -41.47 -137.085
l 114.125 -86.525
l -143.185 -2.915
l -47.025 -135.28
l -47.025 135.28
l -143.185 2.915
l 114.125 86.525
l -41.47 137.085
l 117.555 -81.805
" fill="#FFFFFF" />
</g></g>
<g transform="translate(1396.0826192657478, 127.6923076923077)"><g transform="scale(0.31)"><path d="M 0 0
l 117.555 81.805
l -41.47 -137.085
l 114.125 -86.525
l -143.185 -2.915
l -47.025 -135.28
l -47.025 135.28
l -143.185 2.915
l 114.125 86.525
l -41.47 137.085
l 117.555 -81.805
" fill="#FFFFFF" />
</g></g>
<g transform="translate(126.9166017514316, 343.07692307692304)"><g transform="scale(0.31)"><path d="M 0 0
l 117.555 81.805
l -41.47 -137.085
l 114.125 -86.525
l -143.185 -2.915
l -47.025 -135.28
l -47.025 135.28
l -143.185 2.915
l 114.125 86.525
l -41.47 137.085
l 117.555 -81.805
" fill="#FFFFFF" />
</g></g>
<g transform="translate(380.7498052542948, 343.07692307692304)"><g transform="scale(0.31)"><path d="M 0 0
l 117.555 81.805
l -41.47 -137.085
l 114.125 -86.525
l -143.185 -2.915
l -47.025 -135.28
l -47.025 135.28
l -143.185 2.915
l 114.125 86.525
l -41.47 137.085
l 117.555 -81.805
" fill="#FFFFFF" />
</g></g>
<g transform="translate(634.583008757158, 343.07692307692304)"><g transform="scale(0.31)"><path d="M 0 0
l 117.555 81.805
l -41.47 -137.085
l 114.125 -86.525
l -143.185 -2.915
l -47.025 -135.28
l -47.025 135.28
l -143.185 2.915
l 114.125 86.525
l -41.47 137.085
l 117.555 -81.805
" fill="#FFFFFF" />
</g></g>
<g transform="translate(888.4162122600213, 343.07692307692304)"><g transform="scale(0.31)"><path d="M 0 0
l 117.555 81.805
l -41.47 -137.085
l 114.125 -86.525
l -143.185 -2.915
l -47.025 -135.28
l -47.025 135.28
l -143.185 2.915
l 114.125 86.525
l -41.47 137.085
l 117.555 -81.805
" fill="#FFFFFF" />
</g></g>
<g transform="translate(1142.2494157628844, 343.07692307692304)"><g transform="scale(0.31)"><path d="M 0 0
l 117.555 81.805
l -41.47 -137.085
l 114.125 -86.525
l -143.185 -2.915
l -47.025 -135.28
l -47.025 135.28
l -143.185 2.915
l 114.125 86.525
l -41.47 137.085
l 117.555 -81.805
" fill="#FFFFFF" />
</g></g>
<g transform="translate(1396.0826192657478, 343.07692307692304)"><g transform="scale(0.31)"><path d="M 0 0
l 117.555 81.805
l -41.47 -137.085
l 114.125 -86.525
l -143.185 -2.915
l -47.025 -135.28
l -47.025 135.28
l -143.185 2.915
l 114.125 86.525
l -41.47 137.085
l 117.555 -81.805
" fill="#FFFFFF" />
</g></g>
<g transform="translate(126.9166017514316, 558.4615384615385)"><g transform="scale(0.31)"><path d="M 0 0
l 117.555 81.805
l -41.47 -137.085
l 114.125 -86.525
l -143.185 -2.915
l -47.025 -135.28
l -47.025 135.28
l -143.185 2.915
l 114.125 86.525
l -41.47 137.085
l 117.555 -81.805
" fill="#FFFFFF" />
</g></g>
<g transform="translate(380.7498052542948, 558.4615384615385)"><g transform="scale(0.31)"><path d="M 0 0
l 117.555 81.805
l -41.47 -137.085
l 114.125 -86.525
l -143.185 -2.915
l -47.025 -135.28
l -47.025 135.28
l -143.185 2.915
l 114.125 86.525
l -41.47 137.085
l 117.555 -81.805
" fill="#FFFFFF" />
</g></g>
<g transform="translate(634.583008757158, 558.4615384615385)"><g transform="scale(0.31)"><path d="M 0 0
l 117.555 81.805
l -41.47 -137.085
l 114.125 -86.525
l -143.185 -2.915
l -47.025 -135.28
l -47.025 135.28
l -143.185 2.915
l 114.125 86.525
l -41.47 137.085
l 117.555 -81.805
" fill="#FFFFFF" />
</g></g>
<g transform="translate(888.4162122600213, 558.4615384615385)"><g transform="scale(0.31)"><path d="M 0 0
l 117.555 81.805
l -41.47 -137.085
l 114.125 -86.525
l -143.185 -2.915
l -47.025 -135.28
l -47.025 135.28
l -143.185 2.915
l 114.125 86.525
l -41.47 137.085
l 117.555 -81.805
" fill="#FFFFFF" />
</g></g>
<g transform="translate(1142.2494157628844, 558.4615384615385)"><g transform="scale(0.31)"><path d="M 0 0
l 117.555 81.805
l -41.47 -137.085
l 114.125 -86.525
l -143.185 -2.915
l -47.025 -135.28
l -47.025 135.28
l -143.185 2.915
l 114.125 86.525
l -41.47 137.085
l 117.555 -81.805
" fill="#FFFFFF" />
</g></g>
<g transform="translate(1396.0826192657478, 558.4615384615385)"><g transform="scale(0.31)"><path d="M 0 0
l 117.555 81.805
l -41.47 -137.085
l 114.125 -86.525
l -143.185 -2.915
l -47.025 -135.28
l -47.025 135.28
l -143.185 2.915
l 114.125 86.525
l -41.47 137.085
l 117.555 -81.805
" fill="#FFFFFF" />
</g></g>
<g transform="translate(126.9166017514316, 773.8461538461538)"><g transform="scale(0.31)"><path d="M 0 0
l 117.555 81.805
l -41.47 -137.085
l 114.125 -86.525
l -143.185 -2.915
l -47.025 -135.28
l -47.025 135.28
l -143.185 2.915
l 114.125 86.525
l -41.47 137.085
l 117.555 -81.805
" fill="#FFFFFF" />
</g></g>
<g transform="translate(380.7498052542948, 773.8461538461538)"><g transform="scale(0.31)"><path d="M 0 0
l 117.555 81.805
l -41.47 -137.085
l 114.125 -86.525
l -143.185 -2.915
l -47.025 -135.28
l -47.025 135.28
l -143.185 2.915
l 114.125 86.525
l -41.47 137.085
l 117.555 -81.805
" fill="#FFFFFF" />
</g></g>
<g transform="translate(634.583008757158, 773.8461538461538)"><g transform="scale(0.31)"><path d="M 0 0
l 117.555 81.805
l -41.47 -137.085
l 114.125 -86.525
l -143.185 -2.915
l -47.025 -135.28
l -47.025 135.28
l -143.185 2.915
l 114.125 86.525
l -41.47 137.085
l 117.555 -81.805
" fill="#FFFFFF" />
</g></g>
<g transform="translate(888.4162122600213, 773.8461538461538)"><g transform="scale(0.31)"><path d="M 0 0
l 117.555 81.805
l -41.47 -137.085
l 114.125 -86.525
l -143.185 -2.915
l -47.025 -135.28
l -47.025 135.28
l -143.185 2.915
l 114.125 86.525
l -41.47 137.085
l 117.555 -81.805
" fill="#FFFFFF" />
</g></g>
<g transform="translate(1142.2494157628844, 773.8461538461538)"><g transform="scale(0.31)"><path d="M 0 0
l 117.555 81.805
l -41.47 -137.085
l 114.125 -86.525
l -143.185 -2.915
l -47.025 -135.28
l -47.025 135.28
l -143.185 2.915
l 114.125 86.525
l -41.47 137.085
l 117.555 -81.805
" fill="#FFFFFF" />
</g></g>
<g transform="translate(1396.0826192657478, 773.8461538461538)"><g transform="scale(0.31)"><path d="M 0 0
l 117.555 81.805
l -41.47 -137.085
l 114.125 -86.525
l -143.185 -2.915
l -47.025 -135.28
l -47.025 135.28
l -143.185 2.915
l 114.125 86.525
l -41.47 137.085
l 117.555 -81.805
" fill="#FFFFFF" />
</g></g>
<g transform="translate(126.9166017514316, 989.2307692307692)"><g transform="scale(0.31)"><path d="M 0 0
l 117.555 81.805
l -41.47 -137.085
l 114.125 -86.525
l -143.185 -2.915
l -47.025 -135.28
l -47.025 135.28
l -143.185 2.915
l 114.125 86.525
l -41.47 137.085
l 117.555 -81.805
" fill="#FFFFFF" />
</g></g>
<g transform="translate(380.7498052542948, 989.2307692307692)"><g transform="scale(0.31)"><path d="M 0 0
l 117.555 81.805
l -41.47 -137.085
l 114.125 -86.525
l -143.185 -2.915
l -47.025 -135.28
l -47.025 135.28
l -143.185 2.915
l 114.125 86.525
l -41.47 137.085
l 117.555 -81.805
" fill="#FFFFFF" />
</g></g>
<g transform="translate(634.583008757158, 989.2307692307692)"><g transform="scale(0.31)"><path d="M 0 0
l 117.555 81.805
l -41.47 -137.085
l 114.125 -86.525
l -143.185 -2.915
l -47.025 -135.28
l -47.025 135.28
l -143.185 2.915
l 114.125 86.525
l -41.47 137.085
l 117.555 -81.805
" fill="#FFFFFF" />
</g></g>
<g transform="translate(888.4162122600213, 989.2307692307692)"><g transform="scale(0.31)"><path d="M 0 0
l 117.555 81.805
l -41.47 -137.085
l 114.125 -86.525
l -143.185 -2.915
l -47.025 -135.28
l -47.025 135.28
l -143.185 2.915
l 114.125 86.525
l -41.47 137.085
l 117.555 -81.805
" fill="#FFFFFF" />
</g></g>
<g transform="translate(1142.2494157628844, 989.2307692307692)"><g transform="scale(0.31)"><path d="M 0 0
l 117.555 81.805
l -41.47 -137.085
l 114.125 -86.525
l -143.185 -2.915
l -47.025 -135.28
l -47.025 135.28
l -143.185 2.915
l 114.125 86.525
l -41.47 137.085
l 117.555 -81.805
" fill="#FFFFFF" />
</g></g>
<g transform="translate(1396.0826192657478, 989.2307692307692)"><g transform="scale(0.31)"><path d="M 0 0
l 117.555 81.805
l -41.47 -137.085
l 114.125 -86.525
l -143.185 -2.915
l -47.025 -135.28
l -47.025 135.28
l -143.185 2.915
l 114.125 86.525
l -41.47 137.085
l 117.555 -81.805
" fill="#FFFFFF" />
</g></g>
<g transform="translate(253.8332035028632, 235.3846153846154)"><g transform="scale(0.31)"><path d="M 0 0
l 117.555 81.805
l -41.47 -137.085
l 114.125 -86.525
l -143.185 -2.915
l -47.025 -135.28
l -47.025 135.28
l -143.185 2.915
l 114.125 86.525
l -41.47 137.085
l 117.555 -81.805
" fill="#FFFFFF" />
</g></g>
<g transform="translate(507.6664070057264, 235.3846153846154)"><g transform="scale(0.31)"><path d="M 0 0
l 117.555 81.805
l -41.47 -137.085
l 114.125 -86.525
l -143.185 -2.915
l -47.025 -135.28
l -47.025 135.28
l -143.185 2.915
l 114.125 86.525
l -41.47 137.085
l 117.555 -81.805
" fill="#FFFFFF" />
</g></g>
<g transform="translate(761.4996105085896, 235.3846153846154)"><g transform="scale(0.31)"><path d="M 0 0
l 117.555 81.805
l -41.47 -137.085
l 114.125 -86.525
l -143.185 -2.915
l -47.025 -135.28
l -47.025 135.28
l -143.185 2.915
l 114.125 86.525
l -41.47 137.085
l 117.555 -81.805
" fill="#FFFFFF" />
</g></g>
<g transform="translate(1015.3328140114528, 235.3846153846154)"><g transform="scale(0.31)"><path d="M 0 0
l 117.555 81.805
l -41.47 -137.085
l 114.125 -86.525
l -143.185 -2.915
l -47.025 -135.28
l -47.025 135.28
l -143.185 2.915
l 114.125 86.525
l -41.47 137.085
l 117.555 -81.805
" fill="#FFFFFF" />
</g></g>
<g transform="translate(1269.166017514316, 235.3846153846154)"><g transform="scale(0.31)"><path d="M 0 0
l 117.555 81.805
l -41.47 -137.085
l 114.125 -86.525
l -143.185 -2.915
l -47.025 -135.28
l -47.025 135.28
l -143.185 2.915
l 114.125 86.525
l -41.47 137.085
l 117.555 -81.805
" fill="#FFFFFF" />
</g></g>
<g transform="translate(253.8332035028632, 450.7692307692308)"><g transform="scale(0.31)"><path d="M 0 0
l 117.555 81.805
l -41.47 -137.085
l 114.125 -86.525
l -143.185 -2.915
l -47.025 -135.28
l -47.025 135.28
l -143.185 2.915
l 114.125 86.525
l -41.47 137.085
l 117.555 -81.805
" fill="#FFFFFF" />
</g></g>
<g transform="translate(507.6664070057264, 450.7692307692308)"><g transform="scale(0.31)"><path d="M 0 0
l 117.555 81.805
l -41.47 -137.085
l 114.125 -86.525
l -143.185 -2.915
l -47.025 -135.28
l -47.025 135.28
l -143.185 2.915
l 114.125 86.525
l -41.47 137.085
l 117.555 -81.805
" fill="#FFFFFF" />
</g></g>
<g transform="translate(761.4996105085896, 450.7692307692308)"><g transform="scale(0.31)"><path d="M 0 0
l 117.555 81.805
l -41.47 -137.085
l 114.125 -86.525
l -143.185 -2.915
l -47.025 -135.28
l -47.025 135.28
l -143.185 2.915
l 114.125 86.525
l -41.47 137.085
l 117.555 -81.805
" fill="#FFFFFF" />
</g></g>
<g transform="translate(1015.3328140114528, 450.7692307692308)"><g transform="scale(0.31)"><path d="M 0 0
l 117.555 81.805
l -41.47 -137.085
l 114.125 -86.525
l -143.185 -2.915
l -47.025 -135.28
l -47.025 135.28
l -143.185 2.915
l 114.125 86.525
l -41.47 137.085
l 117.555 -81.805
" fill="#FFFFFF" />
</g></g>
<g transform="translate(1269.166017514316, 450.7692307692308)"><g transform="scale(0.31)"><path d="M 0 0
l 117.555 81.805
l -41.47 -137.085
l 114.125 -86.525
l -143.185 -2.915
l -47.025 -135.28
l -47.025 135.28
l -143.185 2.915
l 114.125 86.525
l -41.47 137.085
l 117.555 -81.805
" fill="#FFFFFF" />
</g></g>
<g transform="translate(253.8332035028632, 666.1538461538461)"><g transform="scale(0.31)"><path d="M 0 0
l 117.555 81.805
l -41.47 -137.085
l 114.125 -86.525
l -143.185 -2.915
l -47.025 -135.28
l -47.025 135.28
l -143.185 2.915
l 114.125 86.525
l -41.47 137.085
l 117.555 -81.805
" fill="#FFFFFF" />
</g></g>
<g transform="translate(507.6664070057264, 666.1538461538461)"><g transform="scale(0.31)"><path d="M 0 0
l 117.555 81.805
l -41.47 -137.085
l 114.125 -86.525
l -143.185 -2.915
l -47.025 -135.28
l -47.025 135.28
l -143.185 2.915
l 114.125 86.525
l -41.47 137.085
l 117.555 -81.805
" fill="#FFFFFF" />
</g></g>
<g transform="translate(761.4996105085896, 666.1538461538461)"><g transform="scale(0.31)"><path d="M 0 0
l 117.555 81.805
l -41.47 -137.085
l 114.125 -86.525
l -143.185 -2.915
l -47.025 -135.28
l -47.025 135.28
l -143.185 2.915
l 114.125 86.525
l -41.47 137.085
l 117.555 -81.805
" fill="#FFFFFF" />
</g></g>
<g transform="translate(1015.3328140114528, 666.1538461538461)"><g transform="scale(0.31)"><path d="M 0 0
l 117.555 81.805
l -41.47 -137.085
l 114.125 -86.525
l -143.185 -2.915
l -47.025 -135.28
l -47.025 135.28
l -143.185 2.915
l 114.125 86.525
l -41.47 137.085
l 117.555 -81.805
" fill="#FFFFFF" />
</g></g>
<g transform="translate(1269.166017514316, 666.1538461538461)"><g transform="scale(0.31)"><path d="M 0 0
l 117.555 81.805
l -41.47 -137.085
l 114.125 -86.525
l -143.185 -2.915
l -47.025 -135.28
l -47.025 135.28
l -143.185 2.915
l 114.125 86.525
l -41.47 137.085
l 117.555 -81.805
" fill="#FFFFFF" />
</g></g>
<g transform="translate(253.8332035028632, 881.5384615384615)"><g transform="scale(0.31)"><path d="M 0 0
l 117.555 81.805
l -41.47 -137.085
l 114.125 -86.525
l -143.185 -2.915
l -47.025 -135.28
l -47.025 135.28
l -143.185 2.915
l 114.125 86.525
l -41.47 137.085
l 117.555 -81.805
" fill="#FFFFFF" />
</g></g>
<g transform="translate(507.6664070057264, 881.5384615384615)"><g transform="scale(0.31)"><path d="M 0 0
l 117.555 81.805
l -41.47 -137.085
l 114.125 -86.525
l -143.185 -2.915
l -47.025 -135.28
l -47.025 135.28
l -143.185 2.915
l 114.125 86.525
l -41.47 137.085
l 117.555 -81.805
" fill="#FFFFFF" />
</g></g>
<g transform="translate(761.4996105085896, 881.5384615384615)"><g transform="scale(0.31)"><path d="M 0 0
l 117.555 81.805
l -41.47 -137.085
l 114.125 -86.525
l -143.185 -2.915
l -47.025 -135.28
l -47.025 135.28
l -143.185 2.915
l 114.125 86.525
l -41.47 137.085
l 117.555 -81.805
" fill="#FFFFFF" />
</g></g>
<g transform="translate(1015.3328140114528, 881.5384615384615)"><g transform="scale(0.31)"><path d="M 0 0
l 117.555 81.805
l -41.47 -137.085
l 114.125 -86.525
l -143.185 -2.915
l -47.025 -135.28
l -47.025 135.28
l -143.185 2.915
l 114.125 86.525
l -41.47 137.085
l 117.555 -81.805
" fill="#FFFFFF" />
</g></g>
<g transform="translate(1269.166017514316, 881.5384615384615)"><g transform="scale(0.31)"><path d="M 0 0
l 117.555 81.805
l -41.47 -137.085
l 114.125 -86.525
l -143.185 -2.915
l -47.025 -135.28
l -47.025 135.28
l -143.185 2.915
l 114.125 86.525
l -41.47 137.085
l 117.555 -81.805
" fill="#FFFFFF" />
</g></g>
</svg>
